<?xml version="1.0" encoding="UTF-8"?> <svg xmlns="http://www.w3.org/2000/svg" width="201" height="128" viewBox="0 0 201 128"><g><g><g><g><path fill="#7f7f7f" d="M8.012 128H1.596c-.451 0-.843-.15-1.144-.452-.301-.301-.452-.693-.452-1.145 0-.451.15-.843.452-1.144.301-.301.693-.452 1.144-.452h6.386c.693 0 1.295-.24 1.807-.753.512-.512.783-1.114.783-1.837a2.53 2.53 0 0 0-.692-1.777 2.714 2.714 0 0 0-1.747-.814c-.06 0-.09 0-.09.03 0 0-.03.03-.061.03h-2.56c-.12 0-.241-.03-.392-.09a5.499 5.499 0 0 1-1.988-.632 5.495 5.495 0 0 1-1.596-1.295 5.762 5.762 0 0 1-1.054-1.747A6.095 6.095 0 0 1 0 113.813c0-.813.15-1.566.452-2.259a5.974 5.974 0 0 1 1.235-1.837 5.974 5.974 0 0 1 1.837-1.235 5.604 5.604 0 0 1 2.26-.452h6.415c.452 0 .843.15 1.144.452.302.301.452.693.452 1.144 0 .452-.15.844-.452 1.145-.3.301-.692.452-1.144.452H5.813c-.723 0-1.325.24-1.837.753-.512.512-.753 1.114-.753 1.867 0 .723.24 1.356.753 1.868.512.512 1.114.783 1.837.783h1.958c.06-.03.12-.03.241-.03.813 0 1.566.15 2.26.452a5.973 5.973 0 0 1 1.836 1.235 5.973 5.973 0 0 1 1.235 1.837c.302.693.452 1.446.452 2.259 0 .783-.15 1.536-.452 2.259a5.974 5.974 0 0 1-1.235 1.837 5.974 5.974 0 0 1-1.837 1.235 6.395 6.395 0 0 1-2.259.422z"></path></g><g><path fill="#7f7f7f" d="M34.213 127.908c-.452 0-.844-.15-1.145-.452-.301-.301-.452-.693-.452-1.145v-.933c-.933.813-1.957 1.446-3.102 1.867-1.145.422-2.32.633-3.584.633-1.326 0-2.59-.241-3.796-.723a9.744 9.744 0 0 1-3.192-2.078 10.216 10.216 0 0 1-2.169-3.163c-.512-1.175-.753-2.41-.753-3.735 0-1.295.241-2.56.753-3.735a10.217 10.217 0 0 1 2.169-3.163 9.368 9.368 0 0 1 3.192-2.108 10.124 10.124 0 0 1 3.796-.723c1.325 0 2.59.241 3.795.723a9.368 9.368 0 0 1 3.193 2.108 10.218 10.218 0 0 1 2.168 3.163c.512 1.175.753 2.41.753 3.735 0 .12 0 .271-.03.422 0 .15-.03.3-.03.451v7.2c0 .451-.15.843-.452 1.144-.27.361-.662.512-1.114.512zm-8.283-16.205c-.934 0-1.808.18-2.62.512-.814.362-1.507.813-2.11 1.416a6.638 6.638 0 0 0-1.445 2.048 5.964 5.964 0 0 0-.542 2.53c0 .874.18 1.717.542 2.5a6.637 6.637 0 0 0 1.446 2.048 6.748 6.748 0 0 0 2.108 1.386c.813.361 1.687.512 2.62.512a6.74 6.74 0 0 0 2.44-.452 6.418 6.418 0 0 0 2.049-1.235c.602-.512 1.084-1.144 1.476-1.837a5.351 5.351 0 0 0 .692-2.26v-1.445c-.09-.813-.3-1.566-.692-2.26-.392-.692-.874-1.324-1.476-1.836a7.43 7.43 0 0 0-2.049-1.235 8.27 8.27 0 0 0-2.44-.392z"></path></g><g><path fill="#7f7f7f" d="M46.775 127.879c-1.205 0-2.32-.211-3.374-.663a8.868 8.868 0 0 1-2.8-1.897 8.43 8.43 0 0 1-1.868-2.832 8.978 8.978 0 0 1-.663-3.373V99.867c0-.452.15-.844.482-1.175.331-.331.693-.482 1.144-.482.452 0 .814.15 1.115.482.301.331.452.723.452 1.175v19.277c0 .783.15 1.506.452 2.168a6.355 6.355 0 0 0 1.174 1.747 5.408 5.408 0 0 0 1.747 1.175 5.179 5.179 0 0 0 2.169.452c.452 0 .843.15 1.145.452.3.3.451.692.451 1.114 0 .452-.15.844-.451 1.145a1.592 1.592 0 0 1-1.175.482z"></path></g><g><path fill="#7f7f7f" d="M68.823 127.908c-.452 0-.844-.15-1.145-.452-.301-.301-.452-.693-.452-1.145v-.933c-.933.813-1.957 1.446-3.102 1.867-1.145.422-2.32.633-3.584.633-1.326 0-2.59-.241-3.796-.723a9.744 9.744 0 0 1-3.192-2.078 10.216 10.216 0 0 1-2.169-3.163c-.512-1.175-.753-2.41-.753-3.735 0-1.295.241-2.56.753-3.735a10.217 10.217 0 0 1 2.169-3.163 9.368 9.368 0 0 1 3.192-2.108 10.124 10.124 0 0 1 3.796-.723c1.325 0 2.59.241 3.795.723a9.368 9.368 0 0 1 3.193 2.108 10.218 10.218 0 0 1 2.168 3.163c.512 1.175.753 2.41.753 3.735 0 .12 0 .271-.03.422 0 .15-.03.3-.03.451v7.2c0 .451-.15.843-.452 1.144-.27.361-.662.512-1.114.512zm-8.283-16.205c-.934 0-1.808.18-2.62.512-.814.362-1.507.813-2.11 1.416a6.638 6.638 0 0 0-1.445 2.048 5.964 5.964 0 0 0-.542 2.53c0 .874.18 1.717.542 2.5a6.637 6.637 0 0 0 1.446 2.048 6.747 6.747 0 0 0 2.108 1.386c.813.361 1.687.512 2.62.512a6.74 6.74 0 0 0 2.44-.452 6.418 6.418 0 0 0 2.049-1.235c.602-.512 1.084-1.144 1.476-1.837a5.351 5.351 0 0 0 .692-2.26v-1.445c-.09-.813-.3-1.566-.692-2.26-.392-.692-.874-1.324-1.476-1.836a7.43 7.43 0 0 0-2.049-1.235 7.963 7.963 0 0 0-2.44-.392z"></path></g><g><path fill="#7f7f7f" d="M93.433 107.94c1.144 0 2.229.241 3.192.753a8.74 8.74 0 0 1 2.56 1.988c.724.843 1.266 1.837 1.657 2.952.392 1.114.573 2.259.573 3.464v9.156c0 .452-.151.844-.452 1.145-.301.301-.693.452-1.145.452-.452 0-.843-.15-1.144-.452-.302-.301-.452-.693-.452-1.145v-9.156c0-1.687-.482-3.133-1.476-4.308-.934-1.084-2.048-1.626-3.313-1.626a3.93 3.93 0 0 0-1.747.422c-.573.27-1.055.692-1.506 1.235-.482.572-.844 1.234-1.115 1.987-.27.723-.391 1.506-.391 2.35v9.157c0 .451-.151.843-.452 1.144-.301.301-.693.452-1.145.452-.452 0-.843-.15-1.144-.452-.302-.301-.452-.693-.452-1.144v-9.217c0-1.687-.482-3.133-1.476-4.308-.934-1.084-2.048-1.626-3.313-1.626a3.93 3.93 0 0 0-1.747.422c-.573.27-1.055.692-1.506 1.235-.994 1.204-1.476 2.65-1.476 4.307v9.156c0 .452-.15.844-.452 1.145-.301.301-.693.452-1.145.452-.451 0-.843-.15-1.144-.452-.301-.301-.452-.693-.452-1.145v-9.186c0-1.205.18-2.35.572-3.464A9.462 9.462 0 0 1 75 110.68a8.789 8.789 0 0 1 2.53-1.988 7.007 7.007 0 0 1 3.193-.753c1.144 0 2.229.241 3.253.753a8.79 8.79 0 0 1 2.53 1.988c.12.12.24.271.331.452.09.15.181.301.302.452.12-.12.21-.272.33-.452l.362-.452a8.788 8.788 0 0 1 2.53-1.988c.874-.482 1.928-.753 3.073-.753z"></path></g><g><path fill="#7f7f7f" d="M121.863 127.908c-.452 0-.844-.15-1.145-.452-.301-.301-.452-.693-.452-1.145v-.933c-.933.813-1.957 1.446-3.102 1.867-1.145.422-2.32.633-3.584.633-1.326 0-2.59-.241-3.796-.723a9.744 9.744 0 0 1-3.192-2.078 10.216 10.216 0 0 1-2.169-3.163c-.512-1.175-.753-2.41-.753-3.735 0-1.295.241-2.56.753-3.735a10.217 10.217 0 0 1 2.169-3.163 9.369 9.369 0 0 1 3.192-2.108 10.124 10.124 0 0 1 3.796-.723c1.325 0 2.59.241 3.795.723a9.368 9.368 0 0 1 3.193 2.108 10.218 10.218 0 0 1 2.168 3.163c.512 1.175.753 2.41.753 3.735 0 .12 0 .271-.03.422 0 .15-.03.3-.03.451v7.2c0 .451-.15.843-.452 1.144-.301.361-.662.512-1.114.512zm-8.283-16.205c-.934 0-1.808.18-2.62.512-.814.362-1.507.813-2.11 1.416a6.638 6.638 0 0 0-1.445 2.048 5.964 5.964 0 0 0-.542 2.53c0 .874.18 1.717.542 2.5a6.637 6.637 0 0 0 1.446 2.048 6.748 6.748 0 0 0 2.108 1.386c.813.361 1.687.512 2.62.512a6.74 6.74 0 0 0 2.44-.452 6.418 6.418 0 0 0 2.049-1.235c.602-.512 1.084-1.144 1.476-1.837a5.351 5.351 0 0 0 .692-2.26v-1.445c-.09-.813-.3-1.566-.693-2.26-.391-.692-.873-1.324-1.475-1.836a7.43 7.43 0 0 0-2.049-1.235 8.27 8.27 0 0 0-2.44-.392z"></path></g><g><path fill="#7f7f7f" d="M142.798 128c-.452 0-.843-.15-1.144-.451-.302-.301-.452-.693-.452-1.145v-9.307c0-.813-.15-1.626-.482-2.35-.331-.752-.753-1.385-1.325-1.927-.573-.542-1.205-.994-1.958-1.295a5.758 5.758 0 0 0-2.35-.482c-.843 0-1.656.15-2.38.482-.722.331-1.385.753-1.927 1.295-.572.542-.994 1.205-1.325 1.928a5.758 5.758 0 0 0-.482 2.35c0 .06 0 .06.03-.031 0-.06 0-.06-.03-.03l-.03 9.337c0 .452-.15.844-.452 1.145-.301.301-.693.452-1.145.452-.451 0-.843-.151-1.144-.452-.301-.301-.452-.693-.452-1.145v-9.277c0-.06 0-.12.03-.18 0-.06.03-.121.03-.181.06-1.205.301-2.32.783-3.374.452-1.054 1.115-1.988 1.928-2.831a9.135 9.135 0 0 1 3.012-2.018 9.61 9.61 0 0 1 3.584-.693c1.266 0 2.44.241 3.555.693a9.981 9.981 0 0 1 3.012 2.018c.873.873 1.566 1.867 2.018 3.012.452 1.114.723 2.32.753 3.554v9.277c0 .452-.15.844-.452 1.145-.391.331-.753.482-1.205.482z"></path></g><g><path fill="#7f7f7f" d="M155.998 127.878c-2.59 0-4.79-.903-6.657-2.68a9.125 9.125 0 0 1-2.048-2.952 8.929 8.929 0 0 1-.723-3.554c0-1.235.241-2.41.723-3.525a9.124 9.124 0 0 1 2.048-2.952c1.837-1.777 4.066-2.68 6.657-2.68 1.144 0 2.259.18 3.313.572a9.974 9.974 0 0 1 2.892 1.687V99.926c0-.451.15-.843.451-1.144.302-.301.693-.452 1.145-.452.452 0 .843.15 1.144.452.302.301.452.693.452 1.144v18.735c0 1.265-.24 2.44-.723 3.555a9.124 9.124 0 0 1-2.048 2.951 9.295 9.295 0 0 1-3.072 1.988 8.823 8.823 0 0 1-3.554.723zm0-15.18a5.94 5.94 0 0 0-2.41.481c-.753.332-1.416.753-1.958 1.296-.572.542-.994 1.174-1.355 1.867a5.546 5.546 0 0 0-.512 2.32c0 .813.18 1.596.512 2.349a6.075 6.075 0 0 0 1.355 1.897 6.716 6.716 0 0 0 1.958 1.295c.753.332 1.536.482 2.41.482a5.94 5.94 0 0 0 2.41-.482 6.716 6.716 0 0 0 1.957-1.295c.572-.542.994-1.174 1.356-1.897a5.58 5.58 0 0 0 0-4.669 5.625 5.625 0 0 0-1.356-1.867 6.716 6.716 0 0 0-1.958-1.296 6.488 6.488 0 0 0-2.41-.482z"></path></g><g><path fill="#7f7f7f" d="M169.216 127.82c-.451 0-.843-.15-1.144-.452-.301-.301-.452-.693-.452-1.145v-9.126c0-1.235.241-2.41.693-3.524.452-1.115 1.114-2.109 1.988-3.012a9.44 9.44 0 0 1 2.952-1.988 9.303 9.303 0 0 1 3.524-.693c.451 0 .843.15 1.144.452.301.301.452.693.452 1.144 0 .452-.15.844-.452 1.145-.301.301-.693.452-1.144.452a5.52 5.52 0 0 0-2.32.482 6.425 6.425 0 0 0-1.897 1.295 6.426 6.426 0 0 0-1.295 1.897 6.047 6.047 0 0 0-.452 2.35v9.126c0 .452-.15.844-.452 1.145a1.617 1.617 0 0 1-1.145.452z"></path></g><g><path fill="#7f7f7f" d="M198.763 127.908c-.452 0-.844-.15-1.145-.452-.301-.301-.452-.693-.452-1.145v-.933c-.933.813-1.957 1.446-3.102 1.867-1.145.422-2.32.633-3.584.633-1.326 0-2.59-.241-3.796-.723a9.744 9.744 0 0 1-3.192-2.078 10.216 10.216 0 0 1-2.169-3.163c-.512-1.175-.753-2.41-.753-3.735 0-1.295.241-2.56.753-3.735a10.217 10.217 0 0 1 2.169-3.163 9.369 9.369 0 0 1 3.192-2.108 10.124 10.124 0 0 1 3.796-.723c1.325 0 2.59.241 3.795.723a9.368 9.368 0 0 1 3.193 2.108 10.218 10.218 0 0 1 2.168 3.163c.512 1.175.753 2.41.753 3.735 0 .12 0 .271-.03.422 0 .15-.03.3-.03.451v7.2c0 .451-.15.843-.452 1.144-.27.361-.662.512-1.114.512zm-8.283-16.205c-.934 0-1.808.18-2.62.512-.814.362-1.507.813-2.11 1.416a6.638 6.638 0 0 0-1.445 2.048 5.964 5.964 0 0 0-.542 2.53c0 .874.18 1.717.542 2.5a6.637 6.637 0 0 0 1.446 2.048 6.748 6.748 0 0 0 2.108 1.386c.813.361 1.687.512 2.62.512a6.74 6.74 0 0 0 2.44-.452 6.418 6.418 0 0 0 2.049-1.235c.602-.512 1.084-1.144 1.476-1.837a5.351 5.351 0 0 0 .692-2.26v-1.445c-.09-.813-.3-1.566-.692-2.26-.392-.692-.874-1.324-1.476-1.836a7.43 7.43 0 0 0-2.049-1.235 7.963 7.963 0 0 0-2.44-.392z"></path></g></g><g><g><path fill="#7f7f7f" d="M96.81 88.572c-7.802.542-14.73-5.12-16.989-8.012-.451-.572.271-1.325.874-.904 3.705 2.741 11.446 7.832 20.301 4.187 8.072-3.313 13.374-12.68 10.301-22.108-3.735-11.536-12.59-12.741-14.277-8.133 0 0-.301 1.024-.301 1.054a2.937 2.937 0 0 1-4.247 1.567c-.934-.573-1.596-1.958-1.385-3.042.24-1.326 1.325-2.23 2.53-2.38 0 0 3.192-.241 3.825-3.193.512-2.289-1.386-4.85-1.386-4.85a35.92 35.92 0 0 1-3.494-6.867c-.994-2.59-4.247-13.795 5.06-27.47 8.193-12.048 14.127-8.494 14.73-5.542.963 4.609-3.434 7.59-7.44 10.03-2.41 1.476-4.669 2.47-5.693 5.332-.753 2.138-.542 4.88 3.524 4.397 1.085-.12 2.169-.723 3.042-1.295l.06-.06c.272-.18.513-.422.754-.663a2.776 2.776 0 0 1 2.018-.873 2.815 2.815 0 0 1 2.8 2.8c0 1.387-1.084 2.621-2.469 2.772-.271.03-.572.03-.843-.03-.362-.06-.693-.09-1.055-.06-2.259.27-5.482 1.958-5 6.445.181 1.657.814 3.193 1.747 4.579 1.536 2.289 4.73 6.777 7.29 9.638 13.162 14.79 9.277 41.055-14.278 42.681zm8.102-81.416c.331.482 1.415.271 2.41-.451.993-.723 1.505-1.687 1.174-2.17-.331-.481-1.415-.27-2.41.453-.993.723-1.505 1.686-1.174 2.168zm-1.627 32.681c.211-1.054-.3-2.139-1.235-2.68-.15-.091-.3-.151-.482-.211-.753-.241-1.355-.844-1.686-1.567-.06-.15-.15-.331-.211-.482-.12-.24-.12-.512-.03-.783a2.288 2.288 0 0 0-.633-2.44c-.632-.572-1.054-1.295-1.295-2.108-.15-.512-.331-1.024-.452-1.476-.18-.512-.09-1.024.15-1.506.061-.15.121-.331.151-.542.06-.633-.24-1.295-.813-1.597a1.654 1.654 0 0 0-2.38.904c-.18.542-.06 1.115.272 1.536.361.482.512 1.054.512 1.657v.512c0 .482.12 1.386.21 2.078.06.512 0 1.024-.15 1.506-.392 1.205.241 2.5 1.446 2.892.21.06.391.21.512.391.12.211.27.392.391.603.482.723.753 1.596.663 2.47v.391c.03 1.024.663 1.958 1.627 2.32.813.3 1.656.18 2.319-.271.542-.362.934-.934 1.114-1.597zm1.356 2.62c-.814-.3-1.717.151-2.018.964-.302.814.15 1.717.963 2.018.814.302 1.717-.15 2.019-.963.3-.814-.151-1.717-.964-2.018z"></path></g><g><path fill="#cfcfcf" d="M110.938 39.925a2.932 2.932 0 0 0 1.777 3.735c1.507.543 3.193-.27 3.735-1.777.543-1.506-.27-3.192-1.777-3.735-1.506-.542-3.223.271-3.735 1.777z"></path></g><g><path fill="#cfcfcf" d="M84.94 25.59c1.325.481 2.8-.242 3.282-1.567.482-1.325-.24-2.801-1.566-3.283-1.325-.482-2.801.24-3.283 1.566a2.56 2.56 0 0 0 1.566 3.283z"></path></g><g><path fill="#cfcfcf" d="M103.25 39.805c.21-1.054-.302-2.139-1.235-2.68-.15-.091-.332-.151-.482-.212-.753-.24-1.356-.843-1.687-1.566-.06-.15-.15-.331-.21-.482-.121-.24-.121-.512-.031-.783a2.288 2.288 0 0 0-.633-2.44c-.632-.572-1.054-1.295-1.295-2.108-.15-.482-.3-1.024-.451-1.476-.151-.512-.06-1.054.15-1.506.09-.18.15-.361.15-.542a1.659 1.659 0 0 0-.813-1.597 1.654 1.654 0 0 0-2.379.904c-.18.542-.06 1.114.271 1.536.361.452.512 1.054.512 1.657v.512c0 .482.12 1.385.21 2.078.061.512.031 1.024-.15 1.506-.391 1.205.241 2.5 1.446 2.892.21.06.392.21.512.391.12.211.271.422.392.603.482.723.753 1.596.662 2.47 0 .12-.03.27 0 .391.06 1.024.663 1.958 1.627 2.32.813.3 1.657.18 2.32-.272.571-.331.963-.903 1.114-1.596z"></path></g><g><path fill="#cfcfcf" d="M104.642 42.494c-.813-.301-1.717.15-2.018.964-.301.813.15 1.716.964 2.018.813.3 1.716-.15 2.018-.964.3-.813-.15-1.747-.964-2.018z"></path></g><g><path fill="#fff" d="M107.336 6.71c.994-.725 1.522-1.695 1.179-2.165-.344-.47-1.428-.263-2.422.463-.994.726-1.522 1.696-1.178 2.166.343.47 1.427.263 2.421-.463z"></path></g></g></g></g></svg> 