<?xml version="1.0" encoding="UTF-8"?> <svg xmlns="http://www.w3.org/2000/svg" width="128" height="128" viewBox="0 0 128 128"><g><g><g><path fill="#7f7f7f" d="M96.973 25.825C96.973 8.035 84.246 0 69.173 0H31.23v12.238h37.942c8.777 0 14.702 4.945 14.702 13.96 0 9.399-6.06 13.84-14.702 13.84H31.23v46.466h12.728v-34.23h19.527l17.181 34.23h14.956L77.952 51.16c11.732-2.955 19.023-11.48 19.023-25.335"></path></g><g><path fill="#7f7f7f" d="M7.143 102.376c1.38 0 2.213.577 2.228 1.959 0 1.35-.773 2.02-2.213 2.02H3.104v-3.98h4.043zm1.842 12.474h3.564l-2.97-6.015a4.417 4.417 0 0 0 2.97-4.56c0-3.297-2.406-4.915-5.331-4.915H0v15.503h3.104v-5.569h3.118l2.763 5.57z"></path></g><g><path fill="#7f7f7f" d="M16.91 114.863V99.36h10.752v3.044h-7.663v2.673h4.46v3.014h-4.455v3.742h8.005v3.03z"></path></g><g><path fill="#7f7f7f" d="M39.84 108.736v6.133h-3.104v-6.059l-5.866-9.43h3.564l2.198 3.669c.549.935 1.396 2.447 1.678 3.029.282-.58 1.098-2.064 1.678-3.03l2.198-3.668h3.52z"></path></g><g><path fill="#7f7f7f" d="M58.65 114.863l-5.687-8.45c-.37-.58-.89-1.351-1.084-1.752 0 .58.045 2.525.045 3.385v6.816H48.86V99.36h2.97l5.495 8.198c.371.58.89 1.35 1.084 1.752 0-.58-.045-2.525-.045-3.385v-6.55h3.06v15.488z"></path></g><g><path fill="#7f7f7f" d="M74.085 108.466h-3.55l.995-2.804c.312-.906.623-1.826.772-2.406.149.564.46 1.5.773 2.406zm5.67 6.403l-5.88-15.489H70.86l-5.94 15.489h3.329l1.217-3.45h5.672l1.218 3.446z"></path></g><g><path fill="#7f7f7f" d="M83.76 114.863V99.36h10.752v3.044h-7.648v2.673h4.44v3.014h-4.44v3.742h7.989v3.03z"></path></g><g><path fill="#7f7f7f" d="M106.853 102.376c1.366 0 2.213.577 2.213 1.959 0 1.35-.773 2.02-2.213 2.02H102.8v-3.98h4.054zm1.842 12.474h3.564l-2.97-6.015a4.417 4.417 0 0 0 2.97-4.56c0-3.297-2.406-4.915-5.331-4.915H99.71v15.503h3.104v-5.569h3.123l2.758 5.571z"></path></g><g><path fill="#7f7f7f" d="M121.879 115.105a7.197 7.197 0 0 1-6.029-2.81l2.242-1.991a5.016 5.016 0 0 0 3.965 1.767c1.842 0 2.703-.505 2.703-1.678 0-.995-.534-1.44-3.46-2.11-2.85-.668-4.856-1.573-4.856-4.617 0-2.807 2.48-4.544 5.54-4.544a7.374 7.374 0 0 1 5.643 2.436l-2.227 2.168a4.758 4.758 0 0 0-3.52-1.589c-1.664 0-2.213.713-2.213 1.396 0 .98.669 1.273 3.119 1.86 2.45.588 5.183 1.411 5.183 4.782 0 2.938-1.86 4.93-6.089 4.93"></path></g><g><path fill="#7f7f7f" d="M67.676 125.395v.832a1.823 1.823 0 0 1-1.41.742c-.744 0-1.115-.386-1.115-.966 0-.52.46-.861 1.188-.861.454-.026.908.061 1.322.252zm1.1 2.482v-3.98c0-1.307-.891-1.945-2.184-1.945a3.604 3.604 0 0 0-1.99.52l.445.862a2.937 2.937 0 0 1 1.515-.372c.713 0 1.099.356 1.099.98v.43c-.41-.164-.851-.24-1.293-.223-1.322 0-2.316.593-2.316 1.886a1.883 1.883 0 0 0 2.02 1.958 2.283 2.283 0 0 0 1.589-.698v.58z"></path></g><g><path fill="#7f7f7f" d="M72.02 120.404v7.47h1.129v-8.064z"></path></g><g><path fill="#7f7f7f" d="M79.939 127.877v-.55a1.774 1.774 0 0 1-1.455.67c-1.351 0-2.064-.892-2.064-2.6v-3.327h1.144v3.282c0 1.175.445 1.589 1.187 1.589.758 0 1.203-.55 1.203-1.485v-3.386h1.144v5.807z"></path></g><g><path fill="#7f7f7f" d="M91.062 127.874v-3.282c0-1.174-.371-1.589-1.114-1.589-.758 0-1.115.535-1.115 1.486v3.4h-1.142v-3.297c0-1.174-.371-1.589-1.114-1.589-.758 0-1.114.535-1.114 1.486v3.4H84.32v-5.82h1.144v.549a1.83 1.83 0 0 1 2.97.163 2.025 2.025 0 0 1 1.782-.847c1.351 0 1.99.891 1.99 2.599v3.329h-1.144z"></path></g><g><path fill="#7f7f7f" d="M95.44 122.068h1.143v5.807h-1.144zm.563-.758a.735.735 0 1 1 .727-.727.72.72 0 0 1-.727.727z"></path></g><g><path fill="#7f7f7f" d="M103.404 127.873v-3.282c0-1.175-.445-1.59-1.203-1.59s-1.187.535-1.187 1.486v3.4H99.87v-5.82h1.144v.549a1.785 1.785 0 0 1 1.454-.685c1.352 0 2.064.89 2.064 2.598v3.329h-1.128z"></path></g><g><path fill="#7f7f7f" d="M107.79 122.068h1.143v5.807h-1.144zm.563-.758a.735.735 0 1 1 .728-.727.72.72 0 0 1-.728.727z"></path></g><g><path fill="#7f7f7f" d="M115.699 127.877v-.55a1.774 1.774 0 0 1-1.455.67c-1.351 0-2.064-.892-2.064-2.6v-3.327h1.144v3.282c0 1.175.445 1.589 1.187 1.589.758 0 1.203-.55 1.203-1.485v-3.386h1.144v5.807z"></path></g><g><path fill="#7f7f7f" d="M126.822 127.874v-3.282c0-1.174-.371-1.589-1.114-1.589-.773 0-1.115.535-1.115 1.486v3.4h-1.145v-3.297c0-1.174-.356-1.589-1.114-1.589-.773 0-1.114.535-1.114 1.486v3.4h-1.14v-5.82h1.144v.549a1.83 1.83 0 0 1 2.97.163 2.025 2.025 0 0 1 1.782-.847c1.351 0 1.99.891 1.99 2.599v3.329h-1.144z"></path></g></g></g></svg> 