<?xml version="1.0" encoding="UTF-8"?> <svg xmlns="http://www.w3.org/2000/svg" width="118" height="128" viewBox="0 0 118 128"><g><g><g><path d="M115.87 119.878a6.118 6.118 0 0 1-.399 2.353 6.098 6.098 0 0 1-5.548 3.919H7.899a6.09 6.09 0 0 1-5.547-3.919 6.102 6.102 0 0 1-.4-2.353V20.871A6.163 6.163 0 0 1 7.9 14.6H109.82a6.098 6.098 0 0 1 5.947 6.271v99.007z"></path></g><g><path fill="#7c7f82" d="M7.896 128.004A8.11 8.11 0 0 1 0 119.779V20.875a8.113 8.113 0 0 1 7.895-8.225h101.922a8.113 8.113 0 0 1 7.898 8.225v98.904a7.896 7.896 0 0 1-7.796 8.225zm0-111.344a4.15 4.15 0 0 0-3.999 4.317v98.907a4.215 4.215 0 0 0 3.999 4.313h101.922a4.145 4.145 0 0 0 3.745-2.71 4.167 4.167 0 0 0 .254-1.603v-99.01a4.218 4.218 0 0 0-3.999-4.318H7.896z"></path></g><g><path fill="#7f7f7f" d="M43.068 66.004h-3.793l-9.537-30.226-1.333 2.053c-.307.514-1.332 2.056-1.743 2.673-.41.617-1.539 2.468-1.846 3.084a23.684 23.684 0 0 0-2.358 6.374 4.351 4.351 0 0 0 .41 2.57 1.25 1.25 0 0 0 .923.411h.205a8.47 8.47 0 0 0 4.204-1.331l2.256-1.234-.41 4.627 3.178 2.981-1.948.822a17.022 17.022 0 0 1-5.742 1.438c-.856.058-1.715.024-2.564-.102l-1.127-.208v-.102a8.656 8.656 0 0 1-4.717-3.084c-2.666-3.595-3.589-10.281-3.589-10.487-.102-.308-1.64-8.841.719-21.59.102-.206.102-.514.205-.823a31.605 31.605 0 0 1 5.537-13.568 19.054 19.054 0 0 1 9.945-7.917c.82-.308 2.157-.616 3.179-.925l.307-.103a48.568 48.568 0 0 1 5.332-.925h.616L41.12.309h.82L42.039 0h1.846c2.157 0 5.024.102 6.153.206.615 0 2.973.102 3.178.102 1.333 0 5.947.412 6.358.514.513 0 2.563.308 2.563.308l1.23.206c1.438.206 3.385.514 3.692.617.616.102 2.461.514 3.384.719l.621.104a57.952 57.952 0 0 1 7.998 2.467c1.25.423 2.452.975 3.588 1.646.72.308 3.794 2.056 6.152 6.99 1.438 2.876 4.615 12.955 5.841 16.656l7.69-2.57 1.948 5.655 3.18 9.153-6.972 2.365-2.563.926-6.358 2.261-3.178 1.028-.923.309-1.127 16.342H70.035l-2.05-6.477-3.076-9.565c-.616.102-1.333.205-1.949.308v.102H58.45a15.258 15.258 0 0 1-1.744-.205l-1.127 15.94zm-1.743-2.673h11.689l1.128-16.347 1.437.206c.923.102 2.462.411 2.871.411h2.974a23.727 23.727 0 0 0 3.896-.514l1.23-.411 3.794 12.029 1.438 4.627H83.57l1.538-17.993 1.743-.308 1.438-.206-.208-2.052 2.564-.719.616 1.336 1.332-.411.205.514.41-.206-.307-1.542 1.437-.514-.102-.719 2.564-.822v.102l1.538-.514.513 1.13 1.846-.821.205.411 2.255-.822.205.308.513-.102-2.87-8.225-7.998 2.776-7.279 2.261.923-14.188 2.461-.308c-1.025-2.875-1.948-5.551-2.564-6.785-2.05-4.318-4.614-5.655-4.921-5.757l-.103-.103a20.613 20.613 0 0 0-3.28-1.437c-.82-.309-4.101-1.438-6.358-2.056l-1.23-.309a35.28 35.28 0 0 1-3.999-.719c-.41-.102-3.691-.616-4.716-.718l-1.237-.22a12.567 12.567 0 0 1-1.333-.205c-.619-.1-5.127-.514-6.05-.514h-.102c-.719 0-2.666-.102-3.076-.102-1.23 0-3.999-.206-6.152-.206h-1.846l-1.437.103a12.07 12.07 0 0 1-1.641.102l-.513.103c-1.026.205-2.461.411-3.692.718l-.923.206c-1.089.194-2.155.505-3.178.926h-.102a16.65 16.65 0 0 0-8.51 6.888 30.247 30.247 0 0 0-5.127 12.543 6.572 6.572 0 0 1-.205.925c-2.256 12.235-.719 20.563-.719 20.668 0 .105.82 6.271 3.076 9.356a5.977 5.977 0 0 0 1.948 1.646l.307.102a6.21 6.21 0 0 0 1.846.514h.205c.307 0 1.025.102 1.743.102a7.684 7.684 0 0 0 2.666-.514l-1.025-.925.102-1.028c-.737.231-1.49.403-2.255.514v.107h-1.125a3.895 3.895 0 0 1-3.076-1.336l-.102-.103a6.568 6.568 0 0 1-1.026-4.627 29.28 29.28 0 0 1 2.666-7.299c.41-.617 1.438-2.467 1.846-3.084.408-.616 1.438-2.365 1.743-2.776l4.512-6.888zM88.8 29.609l-.204 2.876 1.025-.308z"></path></g><g><path fill="#7f7f7f" d="M13.948 86.366a9.715 9.715 0 0 1 .513-3.084 5.606 5.606 0 0 1 1.538-2.467 6.503 6.503 0 0 1 2.358-1.646 6.997 6.997 0 0 1 2.973-.616 7.25 7.25 0 0 1 1.438.102 8.53 8.53 0 0 1 1.539.412c.424.153.809.399 1.127.719.312.296.496.701.513 1.13a1.321 1.321 0 0 1-.408 1.025 1.112 1.112 0 0 1-.922.411 5.197 5.197 0 0 1-.923-.206c-.41-.205-.82-.308-1.026-.411a4.218 4.218 0 0 0-1.23-.103 3.363 3.363 0 0 0-1.743.412 4.108 4.108 0 0 0-1.23 1.028 3.58 3.58 0 0 0-.72 1.542 5.84 5.84 0 0 0-.306 1.85 5.34 5.34 0 0 0 1.025 3.393 3.433 3.433 0 0 0 2.97 1.34c.422.05.849-.022 1.23-.207a7.778 7.778 0 0 0 1.129-.411 2.71 2.71 0 0 1 1.025-.308 1.259 1.259 0 0 1 1.025.514c.22.264.362.584.41.925a1.953 1.953 0 0 1-.82 1.542 4.851 4.851 0 0 1-1.949.822c-.678.115-1.363.183-2.05.206a6.787 6.787 0 0 1-3.793-1.026 6.969 6.969 0 0 1-2.564-2.876 6.581 6.581 0 0 1-1.13-4.012z"></path></g><g><path fill="#7f7f7f" d="M31.074 80.3c.21-.505.525-.96.922-1.336a2.157 2.157 0 0 1 1.333-.514 2.446 2.446 0 0 1 1.438.514c.44.336.763.804.92 1.336l4.204 11.618c.105.264.174.54.205.822a1.49 1.49 0 0 1-.205.72 1.238 1.238 0 0 1-.513.513 1.899 1.899 0 0 1-.719.206 1.463 1.463 0 0 1-1.538-1.131l-.614-2.054H30.56l-.82 2.055a1.463 1.463 0 0 1-1.538 1.132 1.54 1.54 0 0 1-1.128-.412 1.323 1.323 0 0 1-.41-1.028 2.27 2.27 0 0 1 .103-.824zm2.252 1.542l-2.048 6.168h4.102z"></path></g><g><path fill="#7f7f7f" d="M41.015 92.527V80.5a1.452 1.452 0 0 1 1.64-1.645h3.794a6.092 6.092 0 0 1 2.769.617 4.254 4.254 0 0 1 1.948 1.85c.5.8.75 1.73.719 2.673a4.613 4.613 0 0 1-.41 2.056 5.876 5.876 0 0 1-1.127 1.646c-.504.46-1.097.81-1.744 1.028a6.596 6.596 0 0 1-2.05.308h-2.36v3.495a1.642 1.642 0 0 1-.41 1.234 1.54 1.54 0 0 1-1.128.412 1.578 1.578 0 0 1-1.64-1.646zm3.178-10.898v4.524h2.157a1.932 1.932 0 0 0 1.538-.617 2.174 2.174 0 0 0 .616-1.645 2.078 2.078 0 0 0-.308-1.131 2.77 2.77 0 0 0-.719-.823 2.067 2.067 0 0 0-1.127-.308z"></path></g><g><path fill="#7f7f7f" d="M56.394 80.3c.21-.505.525-.96.923-1.336a2.157 2.157 0 0 1 1.332-.514 2.446 2.446 0 0 1 1.438.514c.44.336.763.804.92 1.336l4.203 11.617c.105.264.173.54.205.822a1.49 1.49 0 0 1-.205.72 1.237 1.237 0 0 1-.513.513 1.897 1.897 0 0 1-.72.206 1.463 1.463 0 0 1-1.537-1.131l-.612-2.053H55.88l-.616 1.953a1.463 1.463 0 0 1-1.538 1.131 1.54 1.54 0 0 1-1.128-.411 1.428 1.428 0 0 1-.513-1.028.872.872 0 0 1 .004-.722zm2.256 1.542L56.6 88.01h4.1z"></path></g><g><path fill="#7f7f7f" d="M66.345 92.527V80.5a1.452 1.452 0 0 1 1.64-1.645h3.797a6.072 6.072 0 0 1 3.896 1.13 4.681 4.681 0 0 1 1.333 3.702 3.443 3.443 0 0 1-.307 1.542c-.213.449-.49.864-.82 1.234-.386.309-.798.584-1.23.822a4.288 4.288 0 0 1-1.54.412l3.59 3.907a1.258 1.258 0 0 1 .41.925 1.766 1.766 0 0 1-1.648 1.645 1.694 1.694 0 0 1-1.23-.514L69.52 87.9v4.627a1.642 1.642 0 0 1-.41 1.234 1.54 1.54 0 0 1-1.127.411 1.578 1.578 0 0 1-1.64-1.645zm3.178-10.797v3.804h2.26a2.22 2.22 0 0 0 1.437-.514 1.582 1.582 0 0 0 .513-1.337 1.783 1.783 0 0 0-1.95-1.953z"></path></g><g><path fill="#7f7f7f" d="M84.899 94.281a6.788 6.788 0 0 1-3.792-1.028 6.97 6.97 0 0 1-2.564-2.876 8.86 8.86 0 0 1-.923-4.01 9.715 9.715 0 0 1 .513-3.083 5.605 5.605 0 0 1 1.536-2.472 6.503 6.503 0 0 1 2.358-1.645A6.997 6.997 0 0 1 85 78.551a7.34 7.34 0 0 1 5.332 2.261 8.996 8.996 0 0 1 1.538 2.57c.244.977.381 1.976.41 2.982a9.715 9.715 0 0 1-.513 3.084 7.458 7.458 0 0 1-1.539 2.57 5.465 5.465 0 0 1-2.358 1.645 6.995 6.995 0 0 1-2.971.619zm0-2.981c.607.023 1.21-.12 1.743-.412a3.262 3.262 0 0 0 1.23-1.13c.341-.461.586-.986.72-1.543.168-.601.238-1.226.204-1.85a6.234 6.234 0 0 0-.41-2.468 3.81 3.81 0 0 0-1.332-1.747c-.63-.45-1.382-.701-2.157-.72a3.213 3.213 0 0 0-2.157.72 3.811 3.811 0 0 0-1.332 1.747 6.225 6.225 0 0 0-.513 2.468 5.446 5.446 0 0 0 1.025 3.495A3.382 3.382 0 0 0 84.9 91.3z"></path></g><g><path fill="#7f7f7f" d="M93.616 92.218V80.29a1.642 1.642 0 0 1 .41-1.233 1.54 1.54 0 0 1 1.128-.412 1.398 1.398 0 0 1 1.127.412 1.642 1.642 0 0 1 .41 1.233v10.795h3.794a1.32 1.32 0 0 1 1.128.514c.223.302.364.656.41 1.028a1.83 1.83 0 0 1-.41 1.028 1.398 1.398 0 0 1-1.128.412h-5.33a1.696 1.696 0 0 1-1.23-.514 2.336 2.336 0 0 1-.309-1.336z"></path></g><g><path fill="#7f7f7f" d="M13.843 107.847a9.714 9.714 0 0 1 .513-3.084 6.254 6.254 0 0 1 1.538-2.467 6.502 6.502 0 0 1 2.358-1.646 6.996 6.996 0 0 1 2.974-.617c.481-.014.963.02 1.437.102.525.09 1.04.227 1.539.412.424.153.81.399 1.127.719.312.296.496.702.514 1.131a1.323 1.323 0 0 1-.41 1.028 1.111 1.111 0 0 1-.923.412 5.182 5.182 0 0 1-.923-.206 7.058 7.058 0 0 0-1.025-.412 4.213 4.213 0 0 0-1.23-.102 3.363 3.363 0 0 0-1.744.411c-.495.226-.92.581-1.23 1.028-.36.45-.606.978-.719 1.542a5.841 5.841 0 0 0-.307 1.85 5.338 5.338 0 0 0 1.025 3.394 3.558 3.558 0 0 0 2.974 1.336c.421.05.848-.02 1.23-.206a7.767 7.767 0 0 0 1.128-.411c.318-.17.666-.275 1.025-.309a1.258 1.258 0 0 1 1.025.514c.22.265.362.585.41.926a1.953 1.953 0 0 1-.82 1.542 4.852 4.852 0 0 1-1.949.823c-.678.115-1.363.183-2.05.206a6.785 6.785 0 0 1-3.794-1.03 6.966 6.966 0 0 1-2.564-2.875 7 7 0 0 1-1.13-4.01z"></path></g><g><path fill="#7f7f7f" d="M31.169 113.807v-11.72a1.9 1.9 0 0 1 .41-1.337 1.696 1.696 0 0 1 1.23-.514h5.332a1.398 1.398 0 0 1 1.128.412 1.322 1.322 0 0 1 .41 1.028c-.007.253-.077.5-.206.719a1.237 1.237 0 0 1-.513.514 1.927 1.927 0 0 1-.82.205h-3.792v3.084h3.589a1.276 1.276 0 0 1 1.128.412 1.493 1.493 0 0 1 0 2.056 1.398 1.398 0 0 1-1.128.411H34.45v3.29h3.999a1.4 1.4 0 0 1 1.128.412 1.323 1.323 0 0 1 .41 1.028c-.034.248-.103.49-.205.719a1.238 1.238 0 0 1-.513.514 1.926 1.926 0 0 1-.82.205h-5.64a1.399 1.399 0 0 1-1.127-.411 1.027 1.027 0 0 1-.513-1.027z"></path></g><g><path fill="#7f7f7f" d="M44.706 113.912v-12.13a1.642 1.642 0 0 1 .41-1.234 1.54 1.54 0 0 1 1.128-.412c.25.02.495.09.719.206.265.083.486.268.615.514l6.766 9.047v-8.122a1.642 1.642 0 0 1 .41-1.233 1.54 1.54 0 0 1 1.128-.412 1.398 1.398 0 0 1 1.128.412 1.64 1.64 0 0 1 .41 1.233v12.132a1.64 1.64 0 0 1-.41 1.233 1.539 1.539 0 0 1-1.128.412 2.607 2.607 0 0 1-.719-.206 1.052 1.052 0 0 1-.615-.514l-6.768-8.945v8.02a1.642 1.642 0 0 1-.41 1.233 1.539 1.539 0 0 1-1.127.412 1.399 1.399 0 0 1-1.128-.412 1.643 1.643 0 0 1-.409-1.233z"></path></g><g><path fill="#7f7f7f" d="M65.725 113.914v-10.796h-2.358a1.398 1.398 0 0 1-1.127-.411 1.83 1.83 0 0 1-.41-1.028c.02-.251.09-.495.205-.72.116-.218.294-.397.513-.513.224-.116.468-.186.719-.206h7.895c.253.006.5.077.719.206.218.116.397.295.513.514.115.224.184.468.205.719a1.322 1.322 0 0 1-.41 1.028 1.276 1.276 0 0 1-1.128.411H68.7v10.795a1.642 1.642 0 0 1-.41 1.234 1.54 1.54 0 0 1-1.128.411 1.397 1.397 0 0 1-1.127-.411 3.604 3.604 0 0 1-.309-1.233z"></path></g><g><path fill="#7f7f7f" d="M77.206 113.807v-11.72c-.038-.482.108-.96.41-1.337a1.696 1.696 0 0 1 1.23-.514h5.227a1.398 1.398 0 0 1 1.128.412 1.322 1.322 0 0 1 .41 1.028c-.007.253-.077.5-.205.719a1.238 1.238 0 0 1-.513.514 1.927 1.927 0 0 1-.82.205h-3.791v3.084h3.486a1.276 1.276 0 0 1 1.128.412 1.493 1.493 0 0 1 0 2.056 1.398 1.398 0 0 1-1.128.411h-3.486v3.29h3.999a1.4 1.4 0 0 1 1.127.412 1.323 1.323 0 0 1 .41 1.028c-.033.248-.102.49-.205.719a1.238 1.238 0 0 1-.513.514 1.926 1.926 0 0 1-.82.205h-5.536a1.399 1.399 0 0 1-1.127-.411c-.309-.102-.411-.513-.411-1.027z"></path></g><g><path fill="#7f7f7f" d="M90.745 101.89a1.452 1.452 0 0 1 1.64-1.646h3.796a5.542 5.542 0 0 1 3.897 1.234 4.68 4.68 0 0 1 1.333 3.699 3.443 3.443 0 0 1-.307 1.542c-.213.448-.49.864-.82 1.233-.386.31-.798.585-1.23.823a8.52 8.52 0 0 1-1.54.411l3.692 3.907a1.257 1.257 0 0 1 .41.926 1.767 1.767 0 0 1-1.64 1.645 1.695 1.695 0 0 1-1.234-.513l-4.716-5.757v4.627a1.641 1.641 0 0 1-.41 1.233 1.539 1.539 0 0 1-1.128.412 1.399 1.399 0 0 1-1.128-.412 1.813 1.813 0 0 1-.615-1.336zm3.28 1.335v3.804h2.157a2.22 2.22 0 0 0 1.438-.514 1.672 1.672 0 0 0 .513-1.438 1.783 1.783 0 0 0-1.948-1.954h-2.157z"></path></g><g><path fill="#434343" d="M84.9 42.054l1.333 3.495v-.102l1.025 2.776.719-.206v-2.982l1.025 2.57.719-.206-.616-4.725 1.845 4.313.616-.206-.616-3.187 1.23 2.981.616-.205-.516-2.466 1.438 2.156 1.025-.411-.923-4.01 1.641 3.804.616-.206-.921-4.829L97 44.932l.72-.308-1.029-4.627 1.846 4.318 1.438-.412-.923-3.393 1.943 2.982 1.026-.308-.513-3.084 1.538 2.673.31-.1-.204-2.779 1.333 2.365 1.128-.308-2.256-6.271z"></path></g><g><path fill="#434343" d="M21.22 57.987c.766.3 1.555.54 2.359.719l.719-4.318a2.565 2.565 0 0 1-2.256-1.028z"></path></g><g><path fill="#434343" d="M27.581 37.016L33.94 2.78c-.308.102-2.871.822-3.59 1.131L23.79 43.185z"></path></g><g><path fill="#434343" d="M38.349 57.987L42.143 1.75c-.41 0-2.876.206-3.179.206L35.99 50.38z"></path></g><g><path fill="#434343" d="M48.6 64.565l4.819-62.613s-2.974-.102-3.282-.102L44.6 64.565z"></path></g><g><path fill="#434343" d="M59.473 2.47l-.923 46.47c1.023.103 2.053.103 3.076 0l.513-46.164s-2.46-.306-2.666-.306z"></path></g><g><path fill="#434343" d="M66.86 51.41V3.5c.82.102 3.999.926 3.999.926L69.215 59.12z"></path></g><g><path fill="#434343" d="M79.468 64.564l2.564-56.342a19.802 19.802 0 0 0-3.59-1.542L75.88 64.564z"></path></g><g><path d="M29.126 52.95l-.207 2.67 2.156 1.953a18.443 18.443 0 0 1-5.23 1.234c-1.23 0-2.255-.102-2.255-.102l.719-4.318c1.689-.134 3.33-.624 4.817-1.437z"></path></g><g><path d="M22.144 53.464l-.72 4.627a6.726 6.726 0 0 1-2.875-2.262c-2.46-3.29-3.384-9.767-3.384-9.767s-1.64-8.43.72-21.076c.409-1.646 1.024-7.818 5.434-13.777a17.523 17.523 0 0 1 9.228-7.299l-6.56 39.171a24.369 24.369 0 0 0-2.563 6.786 4.53 4.53 0 0 0 .72 3.597z"></path></g><g><path d="M33.837 2.776c.922-.309 4.716-.823 5.126-.926l-2.972 48.63-5.64-17.787-2.871 4.421z"></path></g><g><path d="M42.037 1.75c1.948-.205 7.69.103 8.1.103L44.6 64.57h-4.203l-2.157-6.683z"></path></g><g><path d="M53.316 1.95c.922 0 5.742.412 6.255.514-.104 0-.924 46.474-.924 46.474-.41 0-3.076-.411-3.076-.411l-1.23 16.035H48.5z"></path></g><g><path d="M62.033 2.78c1.025.102 4.82.719 4.922.719l.102 48.218-1.23-3.393c-1.403.38-2.854.553-4.307.514z"></path></g><g><path d="M70.748 4.42a69.987 69.987 0 0 1 7.793 2.365L76.08 64.667h-5.024l-1.846-5.655z"></path></g><g><path d="M84.996 42.16l1.23 3.289-1.332 19.123H79.36L81.928 8.23s3.174 1.231 5.635 6.371c1.644 3.496 6.047 17.684 6.047 17.684l7.69-2.57 2.157 6.066zm1.953-7.717l4.1-1.336-3.28-10.795z"></path></g></g></g></svg> 