<?xml version="1.0" encoding="UTF-8"?> <svg xmlns="http://www.w3.org/2000/svg" width="208" height="128" viewBox="0 0 208 128" fill="none"><g clip-path="url(#clip0)"><path d="M196.344 78.1429C196.344 75.0572 198.858 72.6572 201.829 72.6572C204.915 72.6572 207.315 75.1715 207.315 78.1429C207.315 81.1144 204.801 83.6287 201.829 83.6287C198.858 83.6287 196.344 81.2287 196.344 78.1429Z" fill="#7F7F7F"></path><path d="M31.5429 63.4C31.5429 69.8 29.9429 74.6 26.5143 78.0285C23.0857 81.4571 18.2857 83.1714 12.1143 83.1714H0V45.1143H12.8C18.8571 45.1143 23.4286 46.6 26.6286 49.8C29.9429 52.8857 31.5429 57.4571 31.5429 63.4ZM21.0286 63.7428C21.0286 60.2 20.3429 57.6857 18.9714 55.9714C17.7143 54.3714 15.5429 53.4571 12.8 53.4571H10.0571V74.7143H12.3429C15.4286 74.7143 17.6 73.8 19.0857 71.9714C20.3429 70.1428 21.0286 67.4 21.0286 63.7428Z" fill="#7F7F7F"></path><path d="M74.2865 45H64.8008V83.1714H74.2865V45Z" fill="#7F7F7F"></path><path d="M105.6 68.8859C105.6 73.4573 104.457 77.1145 101.942 79.743C99.4281 82.3716 95.9996 83.6288 91.6567 83.6288C87.4281 83.6288 84.1138 82.3716 81.5996 79.6288C79.0853 76.8859 77.8281 73.343 77.8281 68.8859C77.8281 64.3145 78.971 60.6573 81.4853 58.143C83.9996 55.5145 87.4281 54.2573 91.771 54.2573C94.5138 54.2573 96.9138 54.8288 98.971 55.9716C101.142 57.1145 102.628 58.8288 103.771 61.0002C105.142 63.4002 105.6 65.9145 105.6 68.8859ZM87.6567 68.8859C87.6567 71.4002 87.9996 73.1145 88.571 74.3716C89.1424 75.6288 90.171 76.2002 91.771 76.2002C93.371 76.2002 94.2853 75.6288 94.971 74.3716C95.5424 73.1145 95.8853 71.1716 95.8853 68.8859C95.8853 66.3716 95.5424 64.6573 94.971 63.4002C94.3996 62.2573 93.371 61.5716 91.771 61.5716C90.3996 61.5716 89.2567 62.143 88.571 63.4002C87.9996 64.6573 87.6567 66.3716 87.6567 68.8859Z" fill="#7F7F7F"></path><path d="M118.97 54.7144H109.484V83.0572H118.97V54.7144Z" fill="#7F7F7F"></path><path d="M118.97 45H109.484V51.4H118.97V45Z" fill="#7F7F7F"></path><path d="M138.286 75.8569C139.543 75.8569 141.143 75.514 142.857 74.9426V82.1426C141.6 82.714 140.343 83.0569 139.2 83.2855C138.057 83.514 136.686 83.6283 135.086 83.6283C131.886 83.6283 129.6 82.8283 128.115 81.114C126.743 79.514 125.943 76.9998 125.943 73.6855V62.0283H122.629V54.714H125.943V47.6283L135.543 46.0283V54.9426H141.715V62.1426H135.543V73.114C135.772 75.0569 136.572 75.8569 138.286 75.8569Z" fill="#7F7F7F"></path><path d="M160.458 75.8569C161.715 75.8569 163.315 75.514 165.029 74.9426V82.1426C163.772 82.714 162.515 83.0569 161.372 83.2855C160.229 83.514 158.858 83.6283 157.258 83.6283C154.058 83.6283 151.772 82.8283 150.286 81.114C148.915 79.514 148.115 76.9998 148.115 73.6855V62.0283H144.801V54.714H148.115V47.514L157.715 46.0283V54.9426H163.886V62.1426H157.715V73.114C157.829 75.0569 158.744 75.8569 160.458 75.8569Z" fill="#7F7F7F"></path><path d="M190.627 57.5716C188.341 55.2859 185.141 54.2573 181.027 54.2573C176.684 54.2573 173.255 55.5145 170.855 58.143C168.455 60.7716 167.312 64.4288 167.312 69.2288C167.312 73.8002 168.57 77.4573 171.084 79.9716C173.713 82.4859 177.255 83.743 181.827 83.743C184.113 83.743 185.941 83.6288 187.541 83.2859C189.027 82.943 190.741 82.4859 192.113 81.6859L190.741 75.2859C189.713 75.743 188.57 76.0859 187.655 76.3145C186.284 76.6573 184.684 76.7716 183.084 76.7716C181.255 76.7716 179.77 76.3145 178.741 75.5145C177.713 74.6002 177.141 73.343 177.141 71.743H194.17V67.2859C194.055 63.0573 192.798 59.8573 190.627 57.5716ZM177.141 65.4573C177.255 63.9716 177.713 62.7145 178.398 62.0288C179.084 61.343 179.998 61.0002 181.255 61.0002C182.398 61.0002 183.541 61.343 184.227 62.143C184.913 62.943 185.255 63.9716 185.37 65.4573H177.141Z" fill="#7F7F7F"></path><path d="M57.7127 57.5716C55.3127 55.2859 52.227 54.2573 48.1127 54.2573C43.7699 54.2573 40.3413 55.5145 37.9413 58.143C35.5413 60.7716 34.3984 64.4288 34.3984 69.2288C34.3984 73.8002 35.6556 77.4573 38.1699 79.9716C40.7984 82.4859 44.3413 83.743 48.9127 83.743C51.1984 83.743 53.027 83.6288 54.627 83.2859C56.1127 82.943 57.827 82.4859 59.1984 81.6859L57.827 75.1716C56.7984 75.6288 55.6556 75.9716 54.7413 76.2002C53.3699 76.543 51.7699 76.6573 50.1699 76.6573C48.3413 76.6573 46.8556 76.2002 45.827 75.4002C44.7984 74.4859 44.227 73.2288 44.227 71.6288H61.2556V67.2859C61.1413 63.0573 59.8842 59.8573 57.7127 57.5716ZM44.1127 65.4573C44.227 63.9716 44.6842 62.7145 45.3699 62.0288C46.0556 61.343 46.9699 61.0002 48.227 61.0002C49.4842 61.0002 50.5127 61.343 51.1984 62.143C51.8842 62.943 52.227 63.9716 52.3413 65.4573H44.1127Z" fill="#7F7F7F"></path></g><defs><clipPath id="clip0"><rect width="208" height="38.8571" fill="white" transform="translate(0 45)"></rect></clipPath></defs></svg> 