<?xml version="1.0" encoding="UTF-8"?> <svg xmlns="http://www.w3.org/2000/svg" width="208" height="72" viewBox="0 0 208 72"><g><g><g><path fill="#7f7f7f" d="M206.988 4.286c.414-.421.647-.987.65-1.577a2.247 2.247 0 1 0-2.217 2.253 2.265 2.265 0 0 0 1.567-.676zm-2.579.853a2.621 2.621 0 0 1-1.639-2.43 2.615 2.615 0 1 1 1.639 2.43zm.408-1.023h-.193a1.531 1.531 0 0 0-.193 0V1.308h.93c.683 0 .984.127.984.604s-.465.706-.905.779l.912 1.075.205.23.084.102h-.507c-.097-.127-.187-.242-.272-.362l-.531-.604-.344-.38h-.17zm0-1.57h.478c.41 0 .664-.254.664-.544 0-.29-.163-.459-.501-.459h-.64z"></path></g><g><path fill="#7f7f7f" d="M5.502 3.401c0-.241 0-1.105.163-1.292.163-.187 1.287-.151 1.649-.151 2.488 0 3.83 1.353 3.83 4.089 0 1.473-.248 2.796-1.426 3.623-1.087.707-2.096.647-3.322.647h-.894zm0 7.743h.864c1.425 0 3.074-.09 4.36.646 1.456.858 2.012 2.338 2.012 4.09 0 2.916-1.208 4.698-3.968 4.698-1.063 0-2.459.03-2.936-1.292-.332-.918-.332-2.827-.332-3.872zm-2.93 4.427c0 .985.055 3.256-.198 4.083C2.066 20.729.894 20.699 0 20.699v.706h4.723c1.208.03 2.416 0 3.66 0 1.625 0 3.624.061 5.146-.797a5.098 5.098 0 0 0 2.706-4.457 5.194 5.194 0 0 0-2.15-4.228c-1.088-.827-2.513-1.105-4.077-1.256v-.06c2.12-.707 4.191-1.909 4.191-4.705 0-4.083-3.944-4.832-6.879-4.832H0v.695c.894 0 2.066 0 2.374 1.044.253.828.199 3.099.199 4.083z"></path></g><g><path fill="#7f7f7f" d="M34.702 3.075c0-.338-.054-.924.308-1.111a9.059 9.059 0 0 1 1.812-.03c2.513 0 3.914 1.908 3.914 4.614 0 4.457-2.543 4.548-6.04 4.548zm4.192 8.353c2.772-.278 5.06-1.969 5.06-5.285 0-4.276-3.212-5.073-6.401-5.073H29.2v.695c.894 0 2.066-.03 2.374 1.044.253.828.187 3.105.187 4.09v8.672c0 .979.066 3.256-.187 4.083-.308 1.05-1.48 1.05-2.374 1.05v.708h8.129v-.707c-.893 0-2.041.03-2.373-1.051-.254-.827-.254-3.104-.254-4.083v-3.624c1.486 0 1.371.182 2.295 1.353l4.639 6.33 1.31 1.812h4.615v-.707c-1.426-.247-1.843-.682-2.742-1.812z"></path></g><g><path fill="#7f7f7f" d="M69.013.858c4.77 0 6.45 5.254 6.45 10.031 0 4.778-1.462 10.063-6.287 10.063-4.929 0-6.614-4.971-6.614-9.966.006-4.71 1.77-10.128 6.45-10.128zm0 20.951c5.471 0 9.838-4.524 9.838-11.046C78.851 4.457 74.297 0 69.121 0S59.18 4.65 59.18 10.986s4.554 10.823 9.833 10.823z"></path></g><g><path fill="#7f7f7f" d="M108.323 1.169h.689v6.003h-.689c-.47-3.382-2.627-5.761-5.834-5.761-4.953 0-6.444 5.4-6.444 9.971 0 4.572 1.606 9.513 6.498 9.513 3.872 0 5.285-3.05 6.113-6.71h.495v6.68h-.357l-.664-1.559a8.673 8.673 0 0 1-6.112 2.29c-5.61 0-9.428-3.993-9.428-10.214 0-6.22 4.065-10.672 9.663-10.672 2.271 0 3.709.604 5.617 1.89z"></path></g><g><path fill="#7f7f7f" d="M128.431 12.96l3.183-8.685 3.02 8.685zm-.362.99h6.903l1.093 3.171c.313.77.5 1.586.556 2.416 0 1.208-1.371 1.135-2.15 1.166v.712h8.02v-.712c-.948-.121-1.811-.242-2.415-1.136-.502-.713-1.118-2.591-1.456-3.388L132.98.53H132s-6.721 18.397-6.824 18.578c-.507 1.045-1.148 1.425-2.416 1.582v.713h5.985v-.713c-.84-.09-2.265 0-2.265-1.322 0-1.208.918-3.48 1.341-4.65z"></path></g><g><path fill="#7f7f7f" d="M188.482 3.053a1.776 1.776 0 0 1 .17-.948c.247-.278 1.34-.218 1.678-.218 5.98 0 7.568 4.174 7.568 10.268 0 4.542-.948 8.407-5.84 8.407-1.063 0-2.483-.12-3.129-1.166-.562-.887-.447-2.361-.447-3.406zm-2.875 12.496a21.314 21.314 0 0 1-.253 4.083c-.308 1.039-1.486 1.039-2.374 1.039v.706h8.77c5.761-.09 9.663-3.219 9.663-9.73 0-6.643-4.475-10.539-10.37-10.587h-8.045v.767c.888 0 2.066-.03 2.374 1.045.253.827.253 3.098.253 4.083z"></path></g><g><path fill="#7f7f7f" d="M1.568 28.042h1.28c.52 0 .919.096.919.398 0 .302-.38.423-.949.423h-1.25zm0 1.093h1.468c1.008 0 1.377-.368 1.377-.7 0-.333-.52-.665-1.377-.665H.94v2.386h.604z"></path></g><g><path fill="#7f7f7f" d="M35.629 29.165l.749-1.045.682 1.045zm1.673.278l.459.695h.688l-1.685-2.368h-.713L34.3 30.138h.646l.49-.695z"></path></g><g><path fill="#7f7f7f" d="M67.898 28.046h1.57c.314 0 .84.03.84.398 0 .369-.49.405-.948.405h-1.462zm0 1.08h1.522c.755 0 .834.224.834.418a1.57 1.57 0 0 0 .108.604h.773v-.055c-.193-.054-.23-.109-.235-.241l-.036-.423c0-.332-.29-.393-.556-.447.296-.09.646-.218.646-.568 0-.501-.767-.634-1.534-.634h-2.15v2.38h.604z"></path></g><g><path fill="#7f7f7f" d="M101.444 30.158h-.604V27.79h3.201v.284h-2.597v.725h2.283v.283h-2.283z"></path></g><g><path fill="#7f7f7f" d="M135.79 27.77v1.534c0 .483-.604.894-1.878.894s-1.812-.41-1.812-.852V27.77h.604v1.492c0 .513.604.652 1.208.652s1.208-.133 1.208-.652V27.77z"></path></g><g><path fill="#7f7f7f" d="M167.453 30.158v-1.402-.604l-1.334 2.006h-.604l-1.311-1.988v1.988h-.604V27.79h.9l1.329 2 1.322-2h.906v2.368z"></path></g><g><path fill="#7f7f7f" d="M199.958 28.455c-.037-.362-.604-.477-1.154-.477-.399 0-1.063.054-1.063.41 0 .206.284.272.55.303l1.328.157c.604.072 1.057.253 1.057.604 0 .561-1.02.718-1.812.718a3.02 3.02 0 0 1-1.407-.23c-.398-.18-.477-.38-.477-.603h.604c0 .429.688.55 1.28.55.46 0 1.208-.055 1.208-.393 0-.248-.23-.326-.996-.423l-.948-.109c-.308-.036-.997-.144-.997-.555 0-.41.471-.737 1.6-.737 1.631 0 1.812.495 1.812.755z"></path></g><g></g><g><path fill="#7f7f7f" d="M201.427 24.43H.01v.453h201.417z"></path></g><g><path fill="#7f7f7f" d="M159.522 3.105c0-.338-.054-.924.308-1.11a8.97 8.97 0 0 1 1.812-.031c2.519 0 3.914 1.908 3.914 4.614 0 4.457-2.543 4.548-6.04 4.548zm4.192 8.33c2.766-.279 5.055-1.97 5.055-5.292 0-4.27-3.213-5.073-6.396-5.073-1.178.036-2.416 0-3.551 0h-4.832v.7c.894 0 2.072-.036 2.374 1.045.253.828.187 3.105.187 4.09v8.666c0 .985.066 3.262-.187 4.09-.302 1.044-1.48 1.044-2.374 1.044v.707h8.135v-.707c-.9 0-2.041.03-2.38-1.045a21.828 21.828 0 0 1-.247-4.089v-3.624c1.48 0 1.365.182 2.29 1.353l4.638 6.33 1.316 1.812h4.615v-.707c-1.432-.241-1.848-.676-2.742-1.812z"></path></g><g><path fill="#7f7f7f" d="M148.372 61.233c0 5.696-19.804 10.334-44.832 10.679V41.52l1.1.109c5.803.537 10.085 2.416 10.085 4.53 0 2.113-4.119 3.895-9.76 4.457 24.346.489 43.401 5.061 43.407 10.617zm-43.407 9.513h-.006zm0 0c16.643-.605 29.486-4.585 29.486-9.422 0-4.838-12.84-8.824-29.486-9.428z"></path></g><g><path fill="#7f7f7f" d="M99.281 50.59c-5.641-.562-9.76-2.296-9.76-4.458 0-2.162 4.282-3.968 10.092-4.493l1.1-.109v30.392c-25.029-.345-44.833-4.983-44.833-10.678 0-5.57 19.055-10.141 43.401-10.655zm0 20.154V51.876c-16.64.604-29.48 4.596-29.48 9.428 0 4.85 12.84 8.836 29.48 9.44z"></path></g></g></g></svg> 