<?xml version="1.0" encoding="UTF-8"?> <svg xmlns="http://www.w3.org/2000/svg" width="208" height="41" viewBox="0 0 208 41"><g><g><g><path fill="#434343" d="M12.444 24.687V9.512c0-.433-.062-.526-.464-.372-.774.31-1.61.496-2.385.837-.562.247-1.176.371-1.734.588-.619.217-1.208.465-1.798.681-.743.248-1.487.465-2.198.743a5.846 5.846 0 0 0-1.022.403c-.372.247-.434.217-.589-.217a116.23 116.23 0 0 1-1.331-3.5C.646 7.902.398 7.098.057 6.323c-.155-.372.032-.464.247-.526 1.115-.402 2.26-.805 3.372-1.208.579-.174 1.147-.38 1.703-.62.526-.247 1.114-.402 1.64-.65.562-.247 1.147-.403 1.703-.59.556-.186 1.115-.401 1.672-.588.62-.217 1.208-.434 1.828-.65.65-.248 1.208-.465 1.798-.682.712-.278 1.46-.526 2.168-.774a.513.513 0 0 1 .372 0c.836.402 1.734.681 2.602 1.022.96.372 1.95.742 2.91 1.114.713.28 1.425.562 2.106.868.62.247 1.237.464 1.858.743 1.115.495 2.26.899 3.372 1.393.774.338 1.579.651 2.385.96.247.093.278.217.185.434-.681 1.827-1.332 3.685-2.013 5.507v.031c-.279.62-.337.62-.991.338-.562-.248-1.146-.403-1.703-.62-.743-.278-1.46-.526-2.198-.804-.562-.217-1.115-.403-1.672-.62-.62-.217-1.208-.433-1.828-.65-.433-.155-.899-.31-1.362-.434-.155-.032-.278-.31-.434-.093-.093.123-.031.31-.031.464.124 10.002.031 20.036.062 30.068 0 .526 0 .526-.526.526h-6.497c-.337 0-.372-.093-.372-.402.031-5.036.031-10.115.031-15.193z"></path></g><g><path fill="#7f7f7f" d="M106.8 21.28a19.54 19.54 0 1 1 39.08.061 19.54 19.54 0 0 1-39.08-.062zm35.302.031a13.757 13.757 0 0 0-.31-3.19 15.121 15.121 0 0 0-3.87-7.71 15.52 15.52 0 0 0-14.4-4.77 14.846 14.846 0 0 0-8.857 4.833 15.67 15.67 0 0 0-4.12 10.404 13.92 13.92 0 0 0 .435 4.088 15.366 15.366 0 0 0 5.574 8.857 15.534 15.534 0 0 0 12.975 3.034 14.968 14.968 0 0 0 8.949-5.295 15.607 15.607 0 0 0 3.624-10.251z"></path></g><g><path fill="#7f7f7f" d="M71.374 21.31a19.526 19.526 0 1 1-39.052.034 19.526 19.526 0 0 1 39.052-.033zm-3.717 0c.017-.819-.045-1.638-.185-2.446a15.622 15.622 0 0 0-3.345-7.68 15.426 15.426 0 0 0-11.678-5.79 14.68 14.68 0 0 0-4.025.371 15.116 15.116 0 0 0-9.043 5.698 15.906 15.906 0 0 0-3.096 12.573 15.228 15.228 0 0 0 4.893 9.103 15.734 15.734 0 0 0 13.599 3.809 15.01 15.01 0 0 0 8.02-4.088 15.967 15.967 0 0 0 4.861-11.55z"></path></g><g><path fill="#7f7f7f" d="M156.159 9.94v29.822c0 .337-.062.434-.403.434a50.73 50.73 0 0 0-3.096 0c-.247 0-.31-.062-.31-.31V2.726c0-.248.062-.31.31-.31.9.03 1.798 0 2.664 0a.42.42 0 0 1 .402.216c3.128 5.17 6.287 10.34 9.414 15.545 2.881 4.738 5.732 9.44 8.61 14.183.03.062.061.186.216.155V2.85c0-.372.093-.464.434-.434.991.032 1.95.032 2.942 0 .31 0 .372.062.372.372v37.005c0 .28-.031.403-.372.403a32.353 32.353 0 0 0-2.472 0 .563.563 0 0 1-.562-.31c-1.92-3.19-3.87-6.38-5.791-9.569-3.035-5.017-6.1-10.034-9.136-15.05a434.65 434.65 0 0 1-3.004-4.985c-.063-.096-.125-.185-.218-.34z"></path></g><g><path fill="#7f7f7f" d="M186.42 21.25V2.823c0-.31.062-.434.402-.434h20.532c.31 0 .402.062.402.372a40.19 40.19 0 0 0 0 2.756c0 .31-.062.402-.402.402h-16.723c-.496 0-.496 0-.496.464v12.512c0 .402.124.464.465.464 5.109 0 10.219 0 15.36-.031.31 0 .402.062.402.402-.032.93-.032 1.827 0 2.756 0 .31-.094.372-.372.372-5.14 0-10.251 0-15.392-.032-.337 0-.464.093-.464.434v12.946c0 .337.094.434.434.434 5.667 0 11.334 0 17.032-.032.337 0 .402.093.402.402-.03.93-.03 1.858 0 2.787 0 .28-.093.338-.337.338h-20.843c-.31 0-.372-.062-.372-.372-.03-6.159-.03-12.321-.03-18.515z"></path></g><g><path fill="#7f7f7f" d="M77.91 2.822c0-.337.062-.434.402-.434 4.553 0 9.104-.032 13.688.031 2.367.057 4.646.908 6.472 2.415a11.014 11.014 0 0 1 4.119 6.875 11.094 11.094 0 0 1-2.602 9.415 11.323 11.323 0 0 1-6.317 3.716 11.89 11.89 0 0 1-2.353.217c-3.066.031-6.132 0-9.166 0-.338 0-.403.093-.403.434v14.306c0 .31-.062.373-.372.373a48.726 48.726 0 0 0-3.034 0c-.31 0-.372-.094-.372-.403-.062-6.134-.062-12.297-.062-18.49zm3.778 10.9v7.463c0 .28.062.338.338.338h9.135c.394.01.787-.01 1.177-.062a6.948 6.948 0 0 0 3.995-1.858 7.65 7.65 0 0 0 2.447-7.587 7.545 7.545 0 0 0-7.37-6.069c-3.128-.031-6.256 0-9.352 0-.31 0-.372.093-.372.372z"></path></g><g><path fill="#7f7f7f" d="M10.658 34.75c.123 0 .31-.031.279.186 0 .185-.156.185-.31.185H7.12c-.155 0-.337.062-.372-.185-.035-.247.217-.186.372-.217a.95.95 0 0 1-.337-1.208 1.1 1.1 0 0 1 1.146-.65c.28-.021.56-.01.836.03.863.31 1.05 1.054.43 1.86zm-2.452 0h.247a.815.815 0 0 0 .836-.712.845.845 0 0 0-.677-.81 2.146 2.146 0 0 0-.99.032.765.765 0 0 0-.563.868.717.717 0 0 0 .743.62z"></path></g><g><path fill="#7f7f7f" d="M9.073 30.1c-.743-.246-1.394-.495-2.075-.712-.093-.031-.31 0-.247-.217.063-.216.247-.155.402-.093.96.372 1.92.713 2.88 1.084.32.101.6.297.805.562a.488.488 0 0 1 .124.402c0 .093 0 .155-.124.155-.093 0-.155 0-.185-.124a1.244 1.244 0 0 0-1.64-.712c-.62.247-1.237.495-1.859.712-.123.032-.31.217-.402-.031-.092-.248.124-.217.279-.279.648-.22 1.299-.467 2.042-.746z"></path></g><g><path fill="#7f7f7f" d="M8.197 26.328a1.167 1.167 0 0 1 1.27.68 1.124 1.124 0 0 1-.775 1.55 2.557 2.557 0 0 1-1.083 0 1.2 1.2 0 0 1-.899-1.147 1.176 1.176 0 0 1 1.177-1.053.777.777 0 0 1 .31-.03zm.279 1.889a.76.76 0 0 0 .804-.681.787.787 0 0 0-.619-.805 2.023 2.023 0 0 0-1.053 0 .69.69 0 0 0-.526.62.73.73 0 0 0 .43.805c.19.092.406.03.592.06z"></path></g><g><path fill="#7f7f7f" d="M8.142 38c-.836 0-1.208-.248-1.393-.9a1.132 1.132 0 0 1 .988-1.33h.774a1.165 1.165 0 0 1 1.083 1.083A1.198 1.198 0 0 1 8.511 38a1.493 1.493 0 0 1-.369 0zm-.031-.337h.372a.76.76 0 0 0 .805-.681.787.787 0 0 0-.62-.805 2.023 2.023 0 0 0-1.053 0 .69.69 0 0 0-.526.62.73.73 0 0 0 .434.804c.187.089.403.027.59.058z"></path></g><g><path fill="#7f7f7f" d="M8.27 17.777c0 .402.061.464.433.337a.955.955 0 0 0 .562-1.208 1.1 1.1 0 0 0-.123-.279c-.062-.093-.094-.185.031-.247.093-.062.155 0 .217.093a1.391 1.391 0 0 1 .123 1.3.92.92 0 0 1-.867.682c-.31 0-.62.031-.93 0a1.086 1.086 0 0 1 .058-2.165c.337 0 .495.124.464.464.026.195.036.392.031.589zm-.248-.34v-.563c0-.216-.123-.31-.337-.278a.91.91 0 0 0-.681.65.73.73 0 0 0 .434.805c.402.186.589.093.589-.337z"></path></g><g><path fill="#7f7f7f" d="M7.865 23.443c.321-.024.644-.003.96.062a1.124 1.124 0 0 1 .774 1.208 1.192 1.192 0 0 1-1.146.96H7.029c-.124 0-.279 0-.279-.155 0-.186.124-.217.279-.217h1.46a.787.787 0 0 0 .775-.743.833.833 0 0 0-.774-.774H7.029c-.155 0-.279-.032-.279-.217 0-.186.155-.155.279-.155.278.026.557.037.836.031z"></path></g><g><path fill="#7f7f7f" d="M9.592 20.037c0 .244-.075.482-.216.682a.212.212 0 0 1-.28.093c-.123-.093 0-.155.032-.247a1.065 1.065 0 0 0 .155-.805c-.031-.217-.123-.372-.337-.402a.46.46 0 0 0-.526.247c-.09.189-.163.386-.217.589-.185.495-.433.712-.804.619a.899.899 0 0 1-.681-.991c.031-.186.093-.337.123-.526.032-.094.094-.186.217-.155.124.03.093.155.062.247a1.215 1.215 0 0 0-.124.562c.032.279.155.526.465.562.278.031.402-.186.495-.403.032-.123.062-.247.093-.337.156-.562.465-.774.96-.68.367.016.583.357.583.945z"></path></g><g><path fill="#7f7f7f" d="M7.18 39.639H5.719c-.155 0-.279 0-.279-.186 0-.217.155-.185.31-.185h.31c.248 0 .526.062.681-.062.155-.123.032-.402.062-.62 0-.092-.031-.216.124-.216.123 0 .093.124.123.185.032.217-.093.526.062.651.186.155.496.032.743.062h.9c.371 0 .495-.124.525-.496v-.217c.032-.093.062-.155.155-.155.124 0 .124.094.124.186a.852.852 0 0 1-.9 1.083c-.488 0-.984-.03-1.48-.03z"></path></g><g><path fill="#7f7f7f" d="M7.614 14.406c-.526 0-1.053.031-1.61 0a1.02 1.02 0 0 1-.992-1.084c0-.093 0-.247.124-.247.123-.032.185.093.217.217a.984.984 0 0 0 1.3.804.158.158 0 0 0 .123-.185v-.62c0-.092.032-.185.124-.185.062 0 .124.094.124.155v.562c-.032.248.062.28.31.28h1.858c.123 0 .372-.125.372.154 0 .247-.248.155-.372.155z"></path></g><g><path fill="#7f7f7f" d="M7.18 22.299a.999.999 0 0 1-.464-.775c-.032-.123-.032-.31.155-.31.185-.031.185.124.217.279a.787.787 0 0 0 .899.836h1.331c.124 0 .248 0 .248.155a.196.196 0 0 1-.217.217H7.056c-.123 0-.217-.032-.247-.185-.032-.248.185-.156.37-.217z"></path></g><g><path fill="#7f7f7f" d="M7.303 15.267h1.92c.123 0 .31-.093.31.155 0 .217-.155.186-.279.186H5.352c-.123 0-.31.061-.278-.155 0-.217.185-.155.31-.155.619-.03 1.272-.03 1.92-.03z"></path></g></g></g></svg> 