<?xml version="1.0" encoding="UTF-8"?> <svg xmlns="http://www.w3.org/2000/svg" width="208" height="63" viewBox="0 0 208 63"><g><g><g><path fill="#434343" d="M120.353 0c-4.09 6.906-2.31 13.157-6.31 17.144-3.191 3.205-6.165 3.096-9.645 3.096-1.23 0-3.578.109-4.568.83-.56-1.864-.84-3.8-.83-5.746 0-3.284.734-6.206 3.101-8.568 4.528-4.525 12.728-5.964 18.252-6.75"></path></g><g><g><path fill="#7f7f7f" d="M76.675 47.96h-8.053V31.328c0-2.45-1.026-3.803-3.796-3.803-2.074 0-3.432 1.006-4.933 2.204V47.96H51.84V22.053h7.834v2.281a15.886 15.886 0 0 1 8.878-2.884c5.136 0 8.127 3.189 8.127 8.05v18.46"></path></g><g><g><path fill="#7f7f7f" d="M183.495 27.217h-7.082v11.697c0 3.335 1.763 3.955 4.034 3.955.836-.022 1.67-.098 2.495-.23l.55 5.244c-1.963.355-3.95.559-5.943.61-4.861 0-9.189-1.702-9.189-7.679V27.217h-4.09v-5.169h4.09v-5.696l8.053-2.282v7.978h7.082z"></path></g><g><path fill="#7f7f7f" d="M161.815 47.96h-8.053V31.328c0-2.45-1.028-3.803-3.796-3.803-2.092 0-3.432 1.006-4.935 2.204V47.96h-8.071V22.053h7.834v2.281a15.898 15.898 0 0 1 8.896-2.884c5.136 0 8.127 3.189 8.127 8.05v18.46"></path></g><g><path fill="#7f7f7f" d="M50.552 22.053L37.638 53.438c-1.983 4.82-5.961 8.358-11.391 8.358-2 .01-3.994-.245-5.927-.758l1.14-5.172c1.142.28 2.31.434 3.485.456 3.247 0 4.972-2.753 6.548-6.533l.753-1.829-10.033-25.909h8.658l4.715 12.843a34.23 34.23 0 0 1 1.156 4.252 48.78 48.78 0 0 1 1.43-4.48l4.861-12.616h7.522"></path></g><g><path fill="#7f7f7f" d="M22.104 39.672c0 5.64-5.208 8.739-11.39 8.739A27.322 27.322 0 0 1 0 46.36l2.202-5.243a21.805 21.805 0 0 0 7.375 1.746c1.867 0 4.475-.23 4.475-2.509 0-1.065-.66-1.614-1.908-1.97-1.542-.453-3.907-.865-5.468-1.291-3.284-.908-5.998-2.631-5.998-7.447 0-5.342 4.55-8.662 10.785-8.662a30.025 30.025 0 0 1 9.043 1.217l-2.054 5.243a18.372 18.372 0 0 0-5.927-1.14c-2.22 0-3.725.846-3.725 2.203a2.051 2.051 0 0 0 1.596 1.9c1.265.402 3.266.771 4.933 1.14 3.453.759 6.775 2.728 6.775 8.133"></path></g><g><path fill="#7f7f7f" d="M200.183 41.045a5.159 5.159 0 0 1-3.944 1.978c-1.417 0-3.284-.687-3.284-2.89 0-3.564 3.503-3.936 7.228-3.875zm7.812 6.907V29.567c0-5.176-3.997-8.127-10.18-8.127a25.498 25.498 0 0 0-11.684 3.189l1.983 4.787a15.97 15.97 0 0 1 7.447-2.434c3.816 0 4.622 1.518 4.622 3.647v.689c-6.698.032-15.263 1.366-15.263 9.955 0 4.887 3.301 7.221 8.125 7.221 2.688.08 5.31-.841 7.357-2.585v2.047h7.594"></path></g><g><path fill="#7f7f7f" d="M116.176 31.549c.46-2.642 2.071-4.635 4.787-4.635 2.807 0 4.237 1.78 4.09 4.635zm17.166 2.508c0-7.445-3.228-12.613-12.093-12.613a13.345 13.345 0 0 0-13.667 13.598c0 8.268 5.01 13.453 13.062 13.453a23.83 23.83 0 0 0 11.631-2.967l-2.127-4.787a13.62 13.62 0 0 1-6.604 1.978c-5.501 0-7.372-2.233-7.446-6.004h17.17c.057-.915.075-1.804.075-2.658"></path></g><g><path fill="#7f7f7f" d="M92.726 56.85c-3.613 0-6.677-1.524-6.677-3.797 0-1.761 1.65-3.111 2.733-3.725h7.061c1.727 0 3.413.774 3.413 2.89 0 2.91-2.767 4.634-6.53 4.631zm4.403-26.896a3.733 3.733 0 0 1-4.017 3.952 3.678 3.678 0 0 1-3.797-3.952A3.966 3.966 0 0 1 93.255 26a3.613 3.613 0 0 1 3.872 3.953zm10.201 21.2c0-5.716-3.596-8.587-9.501-8.582h-6.383c-1.249 0-3.962-.291-3.962-2.281 0-.98 1.32-1.851 1.98-2.204 1.048.23 2.117.355 3.19.373 6.2 0 12.309-2.371 12.309-8.882 0-6.817-5.576-8.208-11.391-8.208-6.841 0-12.088 2.911-12.088 8.432 0 4.249 1.999 5.518 3.503 6.308-2.714 1.506-4.953 3.853-4.953 6.38a5.781 5.781 0 0 0 1.303 4.032 8.376 8.376 0 0 0 2.348 1.671c-1.58 1.025-4.165 2.989-4.165 5.927 0 6.28 6.292 8.161 12.84 8.132 7.428-.041 14.968-3.54 14.968-11.096"></path></g></g></g></g></g></svg> 